<?xml version="1.0" standalone="no"?>
<!DOCTYPE svg PUBLIC "-//W3C//DTD SVG 20010904//EN"
 "http://www.w3.org/TR/2001/REC-SVG-20010904/DTD/svg10.dtd">
<svg version="1.0" xmlns="http://www.w3.org/2000/svg"
 width="216.000000pt" height="176.000000pt" viewBox="0 0 216.000000 176.000000"
 preserveAspectRatio="xMidYMid meet">

<g transform="translate(0.000000,176.000000) scale(0.100000,-0.100000)"
fill="#000000" stroke="none">
<path d="M1051 1382 c-14 -42 -48 -149 -77 -237 -135 -411 -274 -843 -274
-849 0 -4 48 27 108 68 59 42 144 101 190 132 l82 56 83 -56 c45 -31 130 -90
190 -132 59 -41 107 -71 107 -67 0 7 -164 515 -296 913 -41 124 -74 231 -74
238 0 33 -17 4 -39 -66z m219 -630 c61 -189 110 -346 107 -348 -2 -2 -70 42
-150 98 l-146 103 0 360 0 360 39 -115 c21 -63 88 -270 150 -458z"/>
</g>
</svg>
